<svg width="1440" height="203" viewBox="0 0 1440 203" fill="none" xmlns="http://www.w3.org/2000/svg">
<path d="M953.589 107.635C903.451 114.791 852.024 119.802 800.291 122.153C738.514 124.959 676.293 123.958 615.286 118.101C559.047 112.702 504.074 103.489 449.638 93.7139C394.594 83.8293 339.659 71.9329 283.181 65.2309C219.332 57.6528 149.878 57.983 85.7499 64.3615C56.2577 67.2954 28.0581 72.9409 0 78.9034V308H1440V44.5437C1419.16 46.7029 1396.17 49.3881 1370.74 52.7226C1370.74 52.7226 1351.08 54.4196 1152.17 91.2268C1093.3 102.12 1031.82 112.814 969.664 119.985C1001.59 115.273 1033.2 109.783 1064.41 103.788C1173.38 82.8498 1277.9 54.9082 1389.6 38.9664C1406.27 36.5871 1423.09 34.4698 1440 32.5857V31.9298V0C1437.8 0.140864 1435.61 0.314742 1433.42 0.468812C1360.7 8.57727 1289.3 21.8053 1219.88 36.5475C1165.43 48.1115 1111.89 61.1744 1056.91 71.8625C1004.57 82.0377 951.264 90.6479 896.988 96.3881C896.988 96.3881 789.639 106.975 690.912 100.288C609.457 94.7704 531.812 76.2248 454.617 60.5097C307.125 24.4745 153.1 3.34771 0 17.8545V41.667C178.125 9.09671 395.965 62.101 461.858 75.4809C485.439 80.2702 509.039 84.9716 532.765 89.3582C538.665 90.4498 544.576 91.5151 550.495 92.5606C570.943 96.1746 591.504 99.5179 612.261 102.397C644.029 105.74 676.196 107.899 708.165 108.868C745.624 110.006 808.255 115.407 972.439 93.8768C972.439 93.8768 992.102 92.1798 1191.02 55.3726C1249.88 44.4799 1311.36 33.7853 1373.52 26.6144C1341.6 31.3267 1309.98 36.816 1278.78 42.8115C1169.81 63.7518 1065.28 91.6934 953.589 107.635Z" fill="url(#paint0_linear_156_29)"/>
<defs>
<linearGradient id="paint0_linear_156_29" x1="731.249" y1="84.5227" x2="727.358" y2="196.917" gradientUnits="userSpaceOnUse">
<stop stop-color="#A0BFEE" stop-opacity="0.7"/>
<stop offset="1" stop-color="white" stop-opacity="0"/>
</linearGradient>
</defs>
</svg>
