<svg width="1438" height="273" viewBox="0 0 1438 273" fill="none" xmlns="http://www.w3.org/2000/svg">
<path d="M485.739 140.943C535.792 132.188 587.133 126.049 638.78 123.157C700.456 119.705 762.577 120.898 823.489 128.018C879.64 134.581 934.529 145.799 988.883 157.703C1043.84 169.74 1098.7 184.233 1155.09 192.386C1218.84 201.605 1288.18 201.17 1352.2 193.357C1381.64 189.764 1409.79 182.862 1437.8 175.573L1437.67 -104L0.00380167 -103.347L0.153979 218.156C20.9587 215.512 43.905 212.224 69.2904 208.144C69.2904 208.144 88.9204 206.064 287.491 161.057C346.255 147.737 407.633 134.659 469.682 125.88C437.816 131.645 406.255 138.358 375.103 145.688C266.318 171.289 161.981 205.434 50.4706 224.939C33.8347 227.85 17.0424 230.442 0.157012 232.749L0.157385 233.549L0.175586 272.514C2.36948 272.341 4.55968 272.128 6.74612 271.939C79.3448 262.011 150.621 245.836 219.917 227.814C274.274 213.678 327.722 197.712 382.607 184.644C434.856 172.204 488.069 161.672 542.254 154.643C542.254 154.643 649.424 141.674 747.995 149.79C829.322 156.486 906.852 179.083 983.93 198.225C1131.2 242.133 1284.99 267.845 1437.84 250.072L1437.82 221.013C1260 260.84 1042.49 196.257 976.692 179.959C953.147 174.125 929.583 168.398 905.892 163.056C900.001 161.727 894.099 160.429 888.189 159.156C867.772 154.755 847.243 150.685 826.517 147.181C794.799 143.115 762.683 140.495 730.765 139.328C693.366 137.956 630.833 131.393 466.927 157.741C466.927 157.741 447.297 159.821 248.726 204.828C189.962 218.148 128.584 231.226 66.5348 240.005C98.4011 234.24 129.962 227.527 161.114 220.197C269.892 194.593 374.233 160.448 485.739 140.943Z" fill="url(#paint0_linear_156_28)"/>
<defs>
<linearGradient id="paint0_linear_156_28" x1="707.732" y1="169.047" x2="713.471" y2="31.9678" gradientUnits="userSpaceOnUse">
<stop stop-color="#A0BFEE" stop-opacity="0.7"/>
<stop offset="1" stop-color="white" stop-opacity="0"/>
</linearGradient>
</defs>
</svg>
